HIERARCHY
ROOT Hips
{
	OFFSET 0.00000 0.00000 0.00000
	CHANNELS 6 Xposition Yposition Zposition Zrotation Yrotation Xrotation 
	JOINT LHipJoint
	{
		OFFSET 0 0 0
		CHANNELS 3 Zrotation Yrotation Xrotation
		JOINT LeftUpLeg
		{
			OFFSET 1.62964 -1.40469 0.78906
			CHANNELS 3 Zrotation Yrotation Xrotation
			JOINT LeftLeg
			{
				OFFSET 2.29640 -6.30932 0.00000
				CHANNELS 3 Zrotation Yrotation Xrotation
				JOINT LeftFoot
				{
					OFFSET 2.29451 -6.30412 0.00000
					CHANNELS 3 Zrotation Yrotation Xrotation
					JOINT LeftToeBase
					{
						OFFSET 0.03611 -0.09921 1.56387
						CHANNELS 3 Zrotation Yrotation Xrotation
						End Site
						{
							OFFSET 0.00000 -0.00000 0.80291
						}
					}
				}
			}
		}
	}
	JOINT RHipJoint
	{
		OFFSET 0 0 0
		CHANNELS 3 Zrotation Yrotation Xrotation
		JOINT RightUpLeg
		{
			OFFSET -1.73712 -1.40469 0.78906
			CHANNELS 3 Zrotation Yrotation Xrotation
			JOINT RightLeg
			{
				OFFSET -2.28137 -6.26801 0.00000
				CHANNELS 3 Zrotation Yrotation Xrotation
				JOINT RightFoot
				{
					OFFSET -2.28681 -6.28298 0.00000
					CHANNELS 3 Zrotation Yrotation Xrotation
					JOINT RightToeBase
					{
						OFFSET -0.15927 -0.43759 1.61103
						CHANNELS 3 Zrotation Yrotation Xrotation
						End Site
						{
							OFFSET -0.00000 -0.00000 0.84630
						}
					}
				}
			}
		}
	}
	JOINT LowerBack
	{
		OFFSET 0 0 0
		CHANNELS 3 Zrotation Yrotation Xrotation
		JOINT Spine
		{
			OFFSET -0.04227 2.04338 -0.00225
			CHANNELS 3 Zrotation Yrotation Xrotation
			JOINT Spine1
			{
				OFFSET -0.02148 2.04482 -0.04273
				CHANNELS 3 Zrotation Yrotation Xrotation
				JOINT Neck
				{
					OFFSET 0 0 0
					CHANNELS 3 Zrotation Yrotation Xrotation
					JOINT Neck1
					{
						OFFSET 0.09180 1.44629 0.19359
						CHANNELS 3 Zrotation Yrotation Xrotation
						JOINT Head
						{
							OFFSET 0.00887 1.40645 0.14750
							CHANNELS 3 Zrotation Yrotation Xrotation
							End Site
							{
								OFFSET -0.00669 1.50671 0.03707
							}
						}
					}
				}
				JOINT LeftShoulder
				{
					OFFSET 0 0 0
					CHANNELS 3 Zrotation Yrotation Xrotation
					JOINT LeftArm
					{
						OFFSET 2.17674 1.86763 -0.06520
						CHANNELS 3 Zrotation Yrotation Xrotation
						JOINT LeftForeArm
						{
							OFFSET 4.65776 -0.00000 0.00000
							CHANNELS 3 Zrotation Yrotation Xrotation
							JOINT LeftHand
							{
								OFFSET 3.55539 -0.00000 0.00000
								CHANNELS 3 Zrotation Yrotation Xrotation
								JOINT LeftFingerBase
								{
									OFFSET 0 0 0
									CHANNELS 3 Zrotation Yrotation Xrotation
									JOINT LeftHandIndex1
									{
										OFFSET 0.70726 -0.00000 0.00000
										CHANNELS 3 Zrotation Yrotation Xrotation
										End Site
										{
											OFFSET 0.57022 -0.00000 0.00000
										}
									}
								}
								JOINT LThumb
								{
									OFFSET 0 0 0
									CHANNELS 3 Zrotation Yrotation Xrotation
									End Site
									{
										OFFSET 0.57892 -0.00000 0.57892
									}
								}
							}
						}
					}
				}
				JOINT RightShoulder
				{
					OFFSET 0 0 0
					CHANNELS 3 Zrotation Yrotation Xrotation
					JOINT RightArm
					{
						OFFSET -2.80694 1.55459 -0.32496
						CHANNELS 3 Zrotation Yrotation Xrotation
						JOINT RightForeArm
						{
							OFFSET -4.71925 -0.00000 -0.00000
							CHANNELS 3 Zrotation Yrotation Xrotation
							JOINT RightHand
							{
								OFFSET -3.56990 -0.00000 0.00000
								CHANNELS 3 Zrotation Yrotation Xrotation
								JOINT RightFingerBase
								{
									OFFSET 0 0 0
									CHANNELS 3 Zrotation Yrotation Xrotation
									JOINT RightHandIndex1
									{
										OFFSET -0.50776 -0.00000 0.00000
										CHANNELS 3 Zrotation Yrotation Xrotation
										End Site
										{
											OFFSET -0.40937 -0.00000 0.00000
										}
									}
								}
								JOINT RThumb
								{
									OFFSET 0 0 0
									CHANNELS 3 Zrotation Yrotation Xrotation
									End Site
									{
										OFFSET -0.41562 -0.00000 0.41562
									}
								}
							}
						}
					}
				}
			}
		}
	}
}
MOTION
Frames: 5
Frame Time: .0083333
-5.2582 16.1906 -6.3666 -186.2190 25.1289 -158.7270 0.0000 0.0000 0.0000 -9.9397 -26.6798 -28.5038 1.5167 7.7772 22.0393 0.3558 0.1553 -11.3257 3.4830 -11.4387 -33.7740 0.0000 0.0000 0.0000 14.4625 19.2520 -23.7736 -0.3474 -3.7873 10.4790 -0.1674 9.2893 -9.1746 -1.1726 6.8733 -19.3405 -3.7914 -4.4639 -28.2173 1.5648 -4.6120 0.3392 1.9810 -2.2789 15.8580 10.8437 0.4601 -6.2686 -12.3584 5.4288 32.0303 -5.8210 3.3174 12.0623 -0.0000 0.0000 0.0000 -83.5495 -0.4514 24.1165 10.7662 -17.9290 -1.7033 -0.0000 -0.0000 5.3906 20.9758 -9.4092 -3.5864 -7.1250 0.0000 -0.0000 -4.2713 19.9300 2.5666 -0.0000 0.0000 0.0000 87.7671 -7.6868 12.2354 -26.2894 37.4931 -9.0632 0.0000 -0.0000 -11.7938 38.8892 -21.0409 -16.1506 7.1250 -0.0000 -0.0000 55.7982 -42.9439 4.4556
-5.2553 16.1891 -6.4398 -186.2170 25.7445 -158.9000 0.0000 0.0000 0.0000 -10.0614 -26.5946 -28.0533 1.3758 7.4227 20.9739 0.3414 0.2433 -11.1273 4.0841 -12.2715 -36.6995 0.0000 0.0000 0.0000 14.3052 19.9996 -23.4106 -0.3881 -4.0007 11.0786 -0.1994 9.2602 -9.6101 -1.0784 6.6009 -18.5382 -3.6270 -4.4404 -28.2996 1.5792 -4.6391 0.3778 1.8909 -2.2805 15.9343 10.8607 0.5748 -6.0908 -12.4735 5.6202 31.8967 -5.8424 3.3925 12.0042 -0.0000 0.0000 0.0000 -83.6899 -0.3619 23.5867 10.7134 -17.8476 -1.6870 -0.0000 -0.0000 5.9999 20.7303 -9.2495 -3.4812 -7.1250 0.0000 -0.0000 -4.4446 20.1167 2.6527 -0.0000 0.0000 0.0000 87.5851 -7.8626 11.8773 -26.0281 37.2365 -8.9047 0.0000 -0.0000 -11.9790 40.1087 -21.5031 -17.1586 7.1250 -0.0000 -0.0000 56.6981 -43.0642 4.3415
-5.2553 16.1848 -6.5012 -186.0990 26.2552 -158.8670 0.0000 0.0000 0.0000 -9.9907 -26.1710 -28.2798 1.3122 7.2560 20.4759 0.3335 -0.1400 -10.8613 4.0545 -12.2325 -36.5596 0.0000 0.0000 0.0000 14.2472 20.6689 -23.2897 -0.4279 -4.1980 11.6343 -0.2379 9.3846 -10.1838 -1.0046 6.3778 -17.8847 -3.3783 -4.4532 -28.3286 1.6636 -4.7463 0.3067 1.8055 -2.3085 15.8612 10.8507 0.6501 -6.5042 -12.5743 5.7844 32.2686 -5.8798 3.4496 12.2743 0.0000 0.0000 0.0000 -83.8050 -0.1826 23.2525 10.7152 -17.8504 -1.6876 -0.0000 -0.0000 6.2463 20.3573 -9.1739 -3.3855 -7.1250 0.0000 -0.0000 -4.7111 20.2222 2.8016 0.0000 0.0000 0.0000 87.3723 -8.1877 11.3679 -25.8652 37.0753 -8.8062 0.0000 -0.0000 -11.2142 41.4856 -21.4931 -17.9518 7.1250 -0.0000 -0.0000 57.2011 -42.7741 5.1326
-5.2544 16.1833 -6.5784 -185.7920 26.9027 -159.1600 0.0000 0.0000 0.0000 -10.0162 -25.8931 -27.5774 1.2063 6.9680 19.6206 0.3244 0.0526 -10.7779 4.2011 -12.4233 -37.2463 0.0000 0.0000 0.0000 14.5963 21.0656 -22.6551 -0.4578 -4.3403 12.0362 -0.2533 9.7399 -10.5328 -1.0319 6.4613 -18.1290 -2.8308 -4.3202 -28.2447 1.6620 -4.7787 0.4795 1.4909 -2.2911 15.9849 10.9992 0.7488 -6.7859 -12.6877 5.9062 32.4107 -5.9478 3.4947 12.4221 -0.0000 0.0000 0.0000 -83.6400 -0.2830 23.3118 10.6677 -17.7771 -1.6731 -0.0000 -0.0000 6.0868 20.6527 -9.2107 -3.4526 -7.1250 0.0000 -0.0000 -4.4997 20.1632 2.6811 -0.0000 0.0000 0.0000 87.4245 -8.2304 10.7021 -25.6274 36.8384 -8.6633 0.0000 -0.0000 -10.8982 41.6127 -21.9450 -18.3635 7.1250 -0.0000 -0.0000 57.6632 -43.1058 4.4188
-5.2591 16.1859 -6.6222 -185.9150 27.0954 -159.0010 0.0000 0.0000 0.0000 -9.9542 -26.0811 -27.9975 1.1620 6.8433 19.2519 0.3078 0.0758 -10.5073 4.8446 -13.2066 -40.1469 0.0000 0.0000 0.0000 14.5410 20.2062 -22.3865 -0.3739 -3.9276 10.8732 -0.1731 10.4028 -9.8001 -1.0769 6.5965 -18.5252 -2.7476 -4.5067 -28.3361 1.6638 -5.0404 0.3927 1.3400 -2.3941 15.9343 11.0601 0.7959 -6.8923 -12.7008 5.9470 32.4917 -5.9653 3.5093 12.4887 0.0000 -0.0000 0.0000 -83.4059 -0.4107 23.4876 10.6389 -17.7327 -1.6643 -0.0000 -0.0000 5.8670 20.8730 -9.2767 -3.5176 -7.1250 0.0000 -0.0000 -4.3428 20.0781 2.5954 0.0000 -0.0000 0.0000 87.4833 -8.2091 9.9142 -25.2666 36.4752 -8.4479 0.0000 -0.0000 -10.6696 42.6349 -22.3081 -19.2632 7.1250 -0.0000 -0.0000 58.3571 -43.1802 4.3643
